<?xml version="1.0" encoding="UTF-8" standalone="no"?>
<svg
   xmlns:dc="http://purl.org/dc/elements/1.1/"
   xmlns:cc="http://creativecommons.org/ns#"
   xmlns:rdf="http://www.w3.org/1999/02/22-rdf-syntax-ns#"
   xmlns:svg="http://www.w3.org/2000/svg"
   xmlns="http://www.w3.org/2000/svg"
   xmlns:sodipodi="http://sodipodi.sourceforge.net/DTD/sodipodi-0.dtd"
   xmlns:inkscape="http://www.inkscape.org/namespaces/inkscape"
   width="2500"
   height="2500"
   viewBox="0 0 256 256"
   preserveAspectRatio="xMidYMid"
   id="svg2"
   version="1.1"
   inkscape:version="0.91 r13725"
   sodipodi:docname="cd-icon-picture-manon.svg">
  <metadata
     id="metadata19">
    <rdf:RDF>
      <cc:Work
         rdf:about="">
        <dc:format>image/svg+xml</dc:format>
        <dc:type
           rdf:resource="http://purl.org/dc/dcmitype/StillImage" />
        <dc:title />
      </cc:Work>
    </rdf:RDF>
  </metadata>
  <sodipodi:namedview
     pagecolor="#ffffff"
     bordercolor="#666666"
     borderopacity="1"
     objecttolerance="10"
     gridtolerance="10"
     guidetolerance="10"
     inkscape:pageopacity="0"
     inkscape:pageshadow="2"
     inkscape:window-width="1662"
     inkscape:window-height="874"
     id="namedview17"
     showgrid="false"
     inkscape:zoom="0.13350176"
     inkscape:cx="-1419.391"
     inkscape:cy="1284.1295"
     inkscape:window-x="0"
     inkscape:window-y="0"
     inkscape:window-maximized="0"
     inkscape:current-layer="svg2" />
  <defs
     id="defs4">
    <linearGradient
       x1="50%"
       y1="0%"
       x2="50%"
       y2="100%"
       id="a">
      <stop
         stop-color="#0091E6"
         offset="0%"
         id="stop7" />
      <stop
         stop-color="#0079BF"
         offset="100%"
         id="stop9" />
    </linearGradient>
  </defs>
  <g
     inkscape:groupmode="layer"
     id="layer1"
     inkscape:label="atras" />
  <path
     id="path4"
     d="m 123.06035,199.63514 c -1.75898,2.4173 -4.4766,3.69153 -7.23141,3.69153 -1.85205,0 -3.7041,-0.56217 -5.31419,-1.75208 -3.99261,-2.97009 -4.84884,-8.60107 -1.92651,-12.61678 l 10.26449,-13.96974 c 2.93164,-4.00072 8.53435,-4.87206 12.53163,-1.91136 4.01123,2.93261 4.86747,8.58234 1.91721,12.59713 l -10.23471,13.95943 z m -7.86428,-27.23769 c 2.93166,-4.0101 2.06613,-9.66171 -1.91718,-12.62618 -4.01124,-2.95133 -9.60652,-2.07061 -12.55118,1.94884 l -10.225411,13.90133 c -2.940957,4.01946 -2.066108,9.68044 1.92652,12.63553 3.974005,2.94199 9.596251,2.08939 12.531621,-1.93946 l 10.23563,-13.921 z M 97.088736,159.08076 c 2.940954,-4.00072 2.066118,-9.6617 -1.935824,-12.61681 -3.983315,-2.94197 -9.596249,-2.07063 -12.522331,1.93947 l -10.321265,14.01752 c -2.931645,4.01946 -1.991651,9.54643 1.991665,12.51093 4.011239,2.95133 9.530185,2.19241 12.465565,-1.82704 L 97.087809,159.07889 Z M 79.000923,145.78282 c 2.931645,-4.01948 2.084731,-9.66171 -1.935819,-12.61681 -3.992629,-2.96073 -9.597186,-2.08937 -12.532559,1.93009 l -10.244948,13.92101 c -2.931649,4.01009 -2.066114,9.67107 1.926512,12.61586 3.992625,2.94198 9.606501,2.08937 12.532562,-1.93945 L 79.000923,145.78186 Z M 243.8154,64.826751 c 0,0 -14.81925,2.885765 -25.41693,4.59099 -20.45173,3.298011 -39.49256,-3.991351 -60.6209,-14.98631 -4.2439,-2.192435 -9.12068,-4.469192 -13.89509,-4.469192 -4.39281,0 -8.70186,2.005045 -12.31291,6.127572 -13.01839,14.84296 -20.58575,27.967572 -36.072297,37.072729 -7.631587,4.48793 1.330875,18.55512 17.726707,12.76952 8.36682,-2.95135 16.54379,-8.58234 25.78824,-16.089087 7.25934,-5.902706 11.62702,-5.031358 17.90727,1.292977 11.79825,11.87755 51.50114,51.33853 51.50114,51.33853 12.55118,-7.78595 23.08186,-12.58775 35.38546,-17.19279 l 0,-60.462437 z M 143.52045,186.30908 c -1.50771,4.40361 -5.8912,9.6036 -9.08346,13.95943 2.82928,2.25802 5.79816,3.20433 8.40408,3.20433 6.83121,0 11.32173,-6.43676 5.16527,-12.64491 l -4.48589,-4.51604 z m 62.00297,-33.22472 C 195.32594,142.96169 160.4263,108.3072 150.2195,98.27165 c -1.57285,-1.54595 -4.01123,-1.72396 -5.79815,-0.46846 -6.08666,4.45046 -19.84121,14.24708 -28.05633,17.15439 -16.05891,5.6591 -29.686891,-2.12685 -32.612038,-13.03843 -1.833441,-6.83026 0.837614,-13.537799 6.924295,-17.087868 9.605563,-5.64972 15.790873,-13.192063 23.405713,-22.671057 -6.62646,-5.17189 -12.86575,-7.027031 -18.974735,-7.027031 -16.258101,0 -31.611562,13.104943 -50.85341,11.810095 C 31.170386,66.100046 15.08355,63.073737 15.08355,63.073737 l 0,60.760383 c 14.066327,3.08252 23.396413,4.45045 37.358504,11.50372 l 4.402126,-5.98704 c 3.471443,-4.75965 9.046225,-7.59856 14.904865,-7.59856 8.292379,0 15.457717,5.54667 17.736025,13.31669 9.064834,0 15.88674,5.77153 18.0878,13.30731 7.87357,-0.28107 15.63918,4.98452 18.07849,13.2886 11.15981,0 19.22324,8.82593 18.87982,19.25498 l 11.13095,11.20671 c 3.49936,3.53224 9.17653,3.52287 12.6852,0 3.50867,-3.53227 3.50867,-9.24757 0,-12.77983 l -16.06822,-16.18558 c -2.09404,-2.10811 1.07959,-5.30306 3.17362,-3.19496 l 19.36563,19.50516 c 3.50867,3.53225 9.17653,3.53225 12.68426,0 3.50867,-3.53225 3.50867,-9.2382 0,-12.76953 l -23.83476,-24.00525 c -2.10335,-2.08938 1.07959,-5.30308 3.17363,-3.19495 l 25.73148,25.91381 c 3.50867,3.53223 9.17654,3.53223 12.68427,0 3.4156,-3.41982 3.44352,-8.8447 0.27921,-12.38539 z"
     inkscape:connector-curvature="0"
     style="fill:#ffffff" />
</svg>
