<?xml version="1.0" encoding="UTF-8" standalone="no"?>
<!-- Generator: Adobe Illustrator 17.0.0, SVG Export Plug-In . SVG Version: 6.00 Build 0)  -->

<svg
   xmlns:dc="http://purl.org/dc/elements/1.1/"
   xmlns:cc="http://creativecommons.org/ns#"
   xmlns:rdf="http://www.w3.org/1999/02/22-rdf-syntax-ns#"
   xmlns:svg="http://www.w3.org/2000/svg"
   xmlns="http://www.w3.org/2000/svg"
   xmlns:sodipodi="http://sodipodi.sourceforge.net/DTD/sodipodi-0.dtd"
   xmlns:inkscape="http://www.inkscape.org/namespaces/inkscape"
   version="1.1"
   id="Layer_1"
   x="0px"
   y="0px"
   width="1200px"
   height="1200px"
   viewBox="0 0 1200 1200"
   enable-background="new 0 0 1200 1200"
   xml:space="preserve"
   inkscape:version="0.91 r13725"
   sodipodi:docname="computer-flat-icon-by-Vexels.svg"><metadata
     id="metadata23"><rdf:RDF><cc:Work
         rdf:about=""><dc:format>image/svg+xml</dc:format><dc:type
           rdf:resource="http://purl.org/dc/dcmitype/StillImage" /></cc:Work></rdf:RDF></metadata><defs
     id="defs21" /><sodipodi:namedview
     pagecolor="#ffffff"
     bordercolor="#666666"
     borderopacity="1"
     objecttolerance="10"
     gridtolerance="10"
     guidetolerance="10"
     inkscape:pageopacity="0"
     inkscape:pageshadow="2"
     inkscape:window-width="1420"
     inkscape:window-height="899"
     id="namedview19"
     showgrid="false"
     inkscape:zoom="0.19666667"
     inkscape:cx="803.38983"
     inkscape:cy="803.38983"
     inkscape:window-x="0"
     inkscape:window-y="0"
     inkscape:window-maximized="0"
     inkscape:current-layer="Layer_1" /><g
     id="g3"><path
       fill="#003547"
       d="M914.59,50c-94.298,0-168.093,12.638-192.939,108.149H139.866c-30.882,0-55.994,25.082-55.994,55.963   v435.431c0,30.861,25.112,55.93,55.994,55.93h250.953v38.476H153.13c-7.454,0-13.457,6.034-13.457,13.488   c0,7.435,6.004,13.461,13.457,13.461h611.871c8.373,50.407-28.156,81.325-76.867,90.505c-39.563,7.46-79.613-0.19-117.341-12.158   c-31.266-9.914-65.67-19.44-92.39,5.311c-12.927,11.978-19.719,28.526-22.466,46.44H245.884c-43.826,0-75.211,4.053-79.777,54.315   l0.911,124.279c0.906,44.776,35.041,49.757,78.867,49.757h455.86c43.818,0,80.256-7.717,77.517-50.652l0.903-111.494   c0-54.825-34.602-66.205-78.42-66.205H469.068c5.326-29.676,22.029-53.492,58.784-50.57c20.132,1.601,40.117,10.184,59.296,15.983   c16.111,4.873,32.99,7.197,49.723,8.581c69.642,5.754,153.235-26.65,139.612-105.95c35.605,21.211,83.736,24.243,138.108,24.243   c111.356,0,201.539-20.038,201.539-167.714V217.777C1113.605,85.019,1025.946,50,914.59,50z M480.171,1011.046h-7.276   c-3.447,0-6.253-3.76-6.253-8.41c0-4.671,2.806-8.425,6.253-8.425h7.276c3.46,0,6.252,3.755,6.252,8.425   C486.422,1007.286,483.631,1011.046,480.171,1011.046z M486.422,1038.519c0,4.646-2.792,8.42-6.252,8.42h-7.276   c-3.447,0-6.253-3.775-6.253-8.42c0-4.686,2.806-8.413,6.253-8.413h7.276C483.631,1030.106,486.422,1033.833,486.422,1038.519z    M428.44,952.704h7.263c3.472,0,6.272,3.765,6.272,8.425c0,4.655-2.799,8.43-6.272,8.43h-7.263c-3.461,0-6.251-3.775-6.251-8.43   C422.189,956.469,424.979,952.704,428.44,952.704z M428.44,994.21h7.263c3.472,0,6.272,3.755,6.272,8.425   c0,4.65-2.799,8.41-6.272,8.41h-7.263c-3.461,0-6.251-3.76-6.251-8.41C422.189,997.965,424.979,994.21,428.44,994.21z    M428.44,1030.106h7.263c3.472,0,6.272,3.727,6.272,8.413c0,4.646-2.799,8.42-6.272,8.42h-7.263c-3.461,0-6.251-3.775-6.251-8.42   C422.189,1033.833,424.979,1030.106,428.44,1030.106z M383.974,952.704h7.288c3.452,0,6.248,3.765,6.248,8.425   c0,4.655-2.796,8.43-6.248,8.43h-7.288c-3.446,0-6.258-3.775-6.258-8.43C377.716,956.469,380.528,952.704,383.974,952.704z    M383.974,994.21h7.288c3.452,0,6.248,3.755,6.248,8.425c0,4.65-2.796,8.41-6.248,8.41h-7.288c-3.446,0-6.258-3.76-6.258-8.41   C377.716,997.965,380.528,994.21,383.974,994.21z M383.974,1030.106h7.288c3.452,0,6.248,3.727,6.248,8.413   c0,4.646-2.796,8.42-6.248,8.42h-7.288c-3.446,0-6.258-3.775-6.258-8.42C377.716,1033.833,380.528,1030.106,383.974,1030.106z    M339.508,952.704h7.281c3.453,0,6.254,3.765,6.254,8.425c0,4.655-2.801,8.43-6.254,8.43h-7.281c-3.441,0-6.235-3.775-6.235-8.43   C333.273,956.469,336.067,952.704,339.508,952.704z M339.508,994.21h7.281c3.453,0,6.254,3.755,6.254,8.425   c0,4.65-2.801,8.41-6.254,8.41h-7.281c-3.441,0-6.235-3.76-6.235-8.41C333.273,997.965,336.067,994.21,339.508,994.21z    M339.508,1030.106h7.281c3.453,0,6.254,3.727,6.254,8.413c0,4.646-2.801,8.42-6.254,8.42h-7.281c-3.441,0-6.235-3.775-6.235-8.42   C333.273,1033.833,336.067,1030.106,339.508,1030.106z M295.054,952.704h7.281c3.448,0,6.244,3.765,6.244,8.425   c0,4.655-2.796,8.43-6.244,8.43h-7.281c-3.454,0-6.245-3.775-6.245-8.43C288.808,956.469,291.6,952.704,295.054,952.704z    M295.054,994.21h7.281c3.448,0,6.244,3.755,6.244,8.425c0,4.65-2.796,8.41-6.244,8.41h-7.281c-3.454,0-6.245-3.76-6.245-8.41   C288.808,997.965,291.6,994.21,295.054,994.21z M295.054,1030.106h7.281c3.448,0,6.244,3.727,6.244,8.413   c0,4.646-2.796,8.42-6.244,8.42h-7.281c-3.454,0-6.245-3.775-6.245-8.42C288.808,1033.833,291.6,1030.106,295.054,1030.106z    M257.856,1046.939h-7.267c-3.448,0-6.26-3.775-6.26-8.42c0-4.686,2.812-8.413,6.26-8.413h7.267c3.481,0,6.271,3.727,6.271,8.413   C264.128,1043.164,261.337,1046.939,257.856,1046.939z M257.856,1011.046h-7.267c-3.448,0-6.26-3.76-6.26-8.41   c0-4.671,2.812-8.425,6.26-8.425h7.267c3.481,0,6.271,3.755,6.271,8.425C264.128,1007.286,261.337,1011.046,257.856,1011.046z    M257.856,969.56h-7.267c-3.448,0-6.26-3.775-6.26-8.43c0-4.661,2.812-8.425,6.26-8.425h7.267c3.481,0,6.271,3.765,6.271,8.425   C264.128,965.785,261.337,969.56,257.856,969.56z M692.115,953.509h7.442c3.54,0,6.397,3.835,6.397,8.606   c0,4.771-2.857,8.618-6.397,8.618h-7.442c-3.535,0-6.404-3.848-6.404-8.618C685.711,957.344,688.58,953.509,692.115,953.509z    M692.115,989.625h7.442c3.54,0,6.397,3.855,6.397,8.616c0,4.773-2.857,8.628-6.397,8.628h-7.442c-3.535,0-6.404-3.855-6.404-8.628   C685.711,993.48,688.58,989.625,692.115,989.625z M692.115,1019.904h7.442c3.54,0,6.397,3.882,6.397,8.63   c0,4.788-2.857,8.631-6.397,8.631h-7.442c-3.535,0-6.404-3.842-6.404-8.631C685.711,1023.787,688.58,1019.904,692.115,1019.904z    M692.115,1050.211h7.442c3.54,0,6.397,3.845,6.397,8.616c0,4.781-2.857,8.641-6.397,8.641h-7.442c-3.535,0-6.404-3.86-6.404-8.641   C685.711,1054.056,688.58,1050.211,692.115,1050.211z M658.721,953.509h7.45c3.535,0,6.404,3.835,6.404,8.606   c0,4.771-2.869,8.618-6.404,8.618h-7.45c-3.537,0-6.401-3.848-6.401-8.618C652.32,957.344,655.184,953.509,658.721,953.509z    M658.721,989.625h7.45c3.535,0,6.404,3.855,6.404,8.616c0,4.773-2.869,8.628-6.404,8.628h-7.45c-3.537,0-6.401-3.855-6.401-8.628   C652.32,993.48,655.184,989.625,658.721,989.625z M658.721,1019.904h7.45c3.535,0,6.404,3.882,6.404,8.63   c0,4.788-2.869,8.631-6.404,8.631h-7.45c-3.537,0-6.401-3.842-6.401-8.631C652.32,1023.787,655.184,1019.904,658.721,1019.904z    M658.721,1050.211h7.45c3.535,0,6.404,3.845,6.404,8.616c0,4.781-2.869,8.641-6.404,8.641h-7.45c-3.537,0-6.401-3.86-6.401-8.641   C652.32,1054.056,655.184,1050.211,658.721,1050.211z M625.338,953.509h7.44c3.547,0,6.392,3.835,6.392,8.606   c0,4.771-2.844,8.618-6.392,8.618h-7.44c-3.54,0-6.407-3.848-6.407-8.618C618.931,957.344,621.798,953.509,625.338,953.509z    M625.338,989.625h7.44c3.547,0,6.392,3.855,6.392,8.616c0,4.773-2.844,8.628-6.392,8.628h-7.44c-3.54,0-6.407-3.855-6.407-8.628   C618.931,993.48,621.798,989.625,625.338,989.625z M625.338,1019.904h7.44c3.547,0,6.392,3.882,6.392,8.63   c0,4.788-2.844,8.631-6.392,8.631h-7.44c-3.54,0-6.407-3.842-6.407-8.631C618.931,1023.787,621.798,1019.904,625.338,1019.904z    M625.338,1050.211h7.44c3.547,0,6.392,3.845,6.392,8.616c0,4.781-2.844,8.641-6.392,8.641h-7.44c-3.54,0-6.407-3.86-6.407-8.641   C618.931,1054.056,621.798,1050.211,625.338,1050.211z M561.831,952.704h7.273c3.471,0,6.253,3.765,6.253,8.425   c0,4.655-2.782,8.43-6.253,8.43h-7.273c-3.454,0-6.264-3.775-6.264-8.43C555.566,956.469,558.377,952.704,561.831,952.704z    M561.831,994.21h7.273c3.471,0,6.253,3.755,6.253,8.425c0,4.65-2.782,8.41-6.253,8.41h-7.273c-3.454,0-6.264-3.76-6.264-8.41   C555.566,997.965,558.377,994.21,561.831,994.21z M561.831,1030.106h7.273c3.471,0,6.253,3.727,6.253,8.413   c0,4.646-2.782,8.42-6.253,8.42h-7.273c-3.454,0-6.264-3.775-6.264-8.42C555.566,1033.833,558.377,1030.106,561.831,1030.106z    M536.532,1084.661c0,4.916-3.986,8.848-8.918,8.848h-10.423c-0.025,0-0.042,0-0.079,0H292.927c-0.025,0-0.054,0-0.073,0h-10.41   c-4.933,0-8.927-3.933-8.927-8.848c0-4.846,3.994-8.806,8.927-8.806h4.512v-0.063h231.957v0.063h8.701   C532.546,1075.855,536.532,1079.815,536.532,1084.661z M517.363,952.704h7.286c3.448,0,6.254,3.765,6.254,8.425   c0,4.655-2.806,8.43-6.254,8.43h-7.286c-3.448,0-6.254-3.775-6.254-8.43C511.109,956.469,513.915,952.704,517.363,952.704z    M517.363,994.21h7.286c3.448,0,6.254,3.755,6.254,8.425c0,4.65-2.806,8.41-6.254,8.41h-7.286c-3.448,0-6.254-3.76-6.254-8.41   C511.109,997.965,513.915,994.21,517.363,994.21z M517.363,1030.106h7.286c3.448,0,6.254,3.727,6.254,8.413   c0,4.646-2.806,8.42-6.254,8.42h-7.286c-3.448,0-6.254-3.775-6.254-8.42C511.109,1033.833,513.915,1030.106,517.363,1030.106z    M480.171,952.704c3.46,0,6.252,3.765,6.252,8.425c0,4.655-2.792,8.43-6.252,8.43h-7.276c-0.01,0-0.017-0.003-0.026-0.003   c-1.291-4.886-2.41-10.099-3.321-15.525c0.971-0.83,2.114-1.328,3.347-1.328H480.171z M176.728,656.255   c-27.473,0-49.706-21.215-49.706-47.26V240.999c0-26.108,22.233-47.255,49.706-47.255H746.36c27.45,0,49.777,21.147,49.777,47.255   v367.997c0,26.045-22.327,47.26-49.777,47.26H176.728z M558.063,705.473h168.369c5.499,15.325,12.576,28.001,21.043,38.476H558.063   V705.473z M919.646,698.147c-26.972,0-48.829-21.893-48.829-48.817c0-26.883,21.856-48.804,48.829-48.804   c26.937,0,48.771,21.92,48.771,48.804C968.417,676.254,946.583,698.147,919.646,698.147z M1028.453,352.785H836.435v-35.001   h192.018c9.684,0,17.534,7.81,17.534,17.475C1045.987,344.934,1038.136,352.785,1028.453,352.785z M1028.453,232.687H836.435   v-18.574c0-5.734-0.868-11.265-2.474-16.477h194.492c9.684,0,17.534,7.879,17.534,17.486   C1045.987,224.783,1038.136,232.687,1028.453,232.687z"
       id="path5"
       style="fill:#ffffff;fill-opacity:0" /><path
       fill="#003547"
       d="M952.422,902.302c-10.031-0.493-19.23,3.735-25.534,10.769c-0.072,0.05-0.135,0.105-0.197,0.155   c-0.11,0.082-0.208,0.17-0.305,0.265c-2.064,1.911-2.521,4.751-1.036,6.349l4.538,4.888c1.481,1.598,4.355,1.346,6.412-0.57   c0.055-0.045,0.102-0.097,0.155-0.15l0.01,0.018c0.053-0.065,0.105-0.128,0.163-0.19c0.173-0.218,0.348-0.445,0.533-0.653   c3.537-4.1,8.788-6.587,14.544-6.297c4.055,0.2,7.735,1.756,10.649,4.21c0.108,0.165,0.227,0.323,0.353,0.478   c0.27,0.328,0.558,0.625,0.878,0.886c1.724,1.438,3.965,1.726,5.396,0.56l5.188-4.213c1.601-1.306,1.636-3.945,0.148-6.071   l0.078-0.075C968.857,906.654,961.132,902.734,952.422,902.302z"
       id="path7"
       style="fill:#ffffff;fill-opacity:0" /><path
       fill="#003547"
       d="M1020.007,871.354l0.043-0.043c-16.233-19.125-39.773-31.693-66.478-33.016   c-26.61-1.316-51.193,8.798-69.219,26.107c-0.203,0.145-0.41,0.298-0.6,0.48c-0.153,0.143-0.298,0.3-0.435,0.46   c-1.636,1.914-1.716,4.685-0.075,6.451l5.423,5.831c1.589,1.709,4.238,1.881,6.259,0.528l0.013,0.015   c0.04-0.035,0.082-0.07,0.115-0.108c0.193-0.138,0.37-0.28,0.553-0.443c0.233-0.223,0.45-0.463,0.64-0.718   c14.745-14.041,34.782-22.232,56.459-21.159c21.791,1.083,41.014,11.31,54.307,26.872c0.055,0.073,0.105,0.142,0.168,0.223   c0.02,0.023,0.045,0.047,0.063,0.075c1.779,2.104,4.791,2.527,6.772,0.913l6.129-4.986c2.006-1.634,2.199-4.713,0.435-6.889   C1020.395,871.737,1020.205,871.537,1020.007,871.354z"
       id="path9"
       style="fill:#ffffff;fill-opacity:0" /><path
       fill="#003547"
       d="M953.925,871.95c-18.007-0.888-34.595,6.247-46.45,18.327c-0.225,0.15-0.433,0.323-0.643,0.503   c-0.085,0.083-0.16,0.172-0.24,0.253c-1.836,1.916-2.071,4.738-0.483,6.434l5.058,5.453c1.546,1.654,4.265,1.676,6.294,0.12   c0.145-0.118,0.293-0.23,0.43-0.363c0.37-0.343,0.685-0.721,0.938-1.128c8.791-8.853,21.024-14.074,34.29-13.416   c12.108,0.595,22.864,5.989,30.645,14.267c0.1,0.15,0.213,0.31,0.333,0.45c0.158,0.208,0.338,0.383,0.515,0.563   c1.789,1.693,4.365,2.021,6.064,0.643l5.699-4.628c1.861-1.521,1.939-4.508,0.17-6.689c-0.025-0.027-0.045-0.045-0.07-0.068   l0.055-0.057C985.978,880.63,970.936,872.788,953.925,871.95z"
       id="path11"
       style="fill:#ffffff;fill-opacity:0" /><path
       fill="#003547"
       d="M885.181,998.498v1.246h53.076v-10.289c0-4.363,2.704-8.08,6.527-9.609v-43.398   C889.271,937.239,885.181,965.032,885.181,998.498z"
       id="path13"
       style="fill:#ffffff;fill-opacity:0" /><path
       fill="#003547"
       d="M958.976,1018.801c0,5.721-4.636,10.357-10.364,10.357c-5.719,0-10.354-4.635-10.354-10.357v-3.995h-53.076   v0.918c0,34.299,27.803,134.276,62.11,134.276c34.294,0,62.11-99.976,62.11-134.276v-0.918h-50.425V1018.801z"
       id="path15"
       style="fill:#ffffff;fill-opacity:0" /><path
       fill="#003547"
       d="M952.312,936.609v43.2c3.893,1.486,6.664,5.231,6.664,9.646v10.289h50.425v-1.246   C1009.401,965.882,1004.903,938.972,952.312,936.609z"
       id="path17"
       style="fill:#ffffff;fill-opacity:0" /></g></svg>