<?xml version="1.0" encoding="UTF-8" standalone="no"?>
<!-- Svg Vector Icons : http://www.onlinewebfonts.com/icon -->

<svg
   xmlns:dc="http://purl.org/dc/elements/1.1/"
   xmlns:cc="http://creativecommons.org/ns#"
   xmlns:rdf="http://www.w3.org/1999/02/22-rdf-syntax-ns#"
   xmlns:svg="http://www.w3.org/2000/svg"
   xmlns="http://www.w3.org/2000/svg"
   xmlns:sodipodi="http://sodipodi.sourceforge.net/DTD/sodipodi-0.dtd"
   xmlns:inkscape="http://www.inkscape.org/namespaces/inkscape"
   version="1.1"
   x="0px"
   y="0px"
   viewBox="0 0 1000 1000"
   enable-background="new 0 0 1000 1000"
   xml:space="preserve"
   id="svg2"
   inkscape:version="0.91 r13725"
   sodipodi:docname="hermosillo.svg"><defs
     id="defs12" /><sodipodi:namedview
     pagecolor="#ffffff"
     bordercolor="#666666"
     borderopacity="1"
     objecttolerance="10"
     gridtolerance="10"
     guidetolerance="10"
     inkscape:pageopacity="0"
     inkscape:pageshadow="2"
     inkscape:window-width="1690"
     inkscape:window-height="967"
     id="namedview10"
     showgrid="false"
     inkscape:zoom="0.236"
     inkscape:cx="500"
     inkscape:cy="500"
     inkscape:window-x="0"
     inkscape:window-y="0"
     inkscape:window-maximized="0"
     inkscape:current-layer="svg2" /><metadata
     id="metadata4"> Svg Vector Icons : http://www.onlinewebfonts.com/icon <rdf:RDF><cc:Work
     rdf:about=""><dc:format>image/svg+xml</dc:format><dc:type
       rdf:resource="http://purl.org/dc/dcmitype/StillImage" /></cc:Work></rdf:RDF></metadata><g
     id="g6"><path
       d="M972.2,683c12.4-12.2-147,169-147,169s-272.5,0-299.7,0c-71.6,0-205.9-91.4-354.1,20C160.3,859.7,10,702.6,10,702.6s273.4-166.1,288.2-174.7c111.2-53.9,192.7,31,222.3,31c29.6,0,219.4,0,233,0c37.1,0,79.1,72.6,0,97.1c-22.3,0-193.5,0-193.5,0s2.9,39.6,41.1,39.6c38.3,0,187.8,0,187.8,0s78.2-77.5,90.6-91c30.9-40.4,56-3.2,56-3.2S1027.8,596.1,972.2,683z M851.5,186.8H693.5v176.3H476.1V186.8H318v281.5c-18.8-0.3-38.5,2.1-59.3,8.7V186.8v-19.6V128h652.2v39.2v19.6V540c-11.1,0-32.2,0-59.3,0L851.5,186.8z"
       id="path8"
       style="fill:#ffffff" /></g></svg>