<?xml version="1.0" encoding="UTF-8" standalone="no"?>
<!-- Created with Inkscape (http://www.inkscape.org/) -->

<svg
   xmlns:dc="http://purl.org/dc/elements/1.1/"
   xmlns:cc="http://creativecommons.org/ns#"
   xmlns:rdf="http://www.w3.org/1999/02/22-rdf-syntax-ns#"
   xmlns:svg="http://www.w3.org/2000/svg"
   xmlns="http://www.w3.org/2000/svg"
   xmlns:sodipodi="http://sodipodi.sourceforge.net/DTD/sodipodi-0.dtd"
   xmlns:inkscape="http://www.inkscape.org/namespaces/inkscape"
   width="410"
   height="410"
   id="svg27183"
   version="1.1"
   inkscape:version="0.91 r13725"
   sodipodi:docname="teacher.svg">
  <defs
     id="defs27185" />
  <sodipodi:namedview
     id="base"
     pagecolor="#ffffff"
     bordercolor="#666666"
     borderopacity="1.0"
     inkscape:pageopacity="0.0"
     inkscape:pageshadow="2"
     inkscape:zoom="1.979899"
     inkscape:cx="177.15659"
     inkscape:cy="226.10329"
     inkscape:document-units="px"
     inkscape:current-layer="layer1"
     showgrid="false"
     inkscape:window-width="1920"
     inkscape:window-height="1031"
     inkscape:window-x="0"
     inkscape:window-y="1"
     inkscape:window-maximized="1" />
  <metadata
     id="metadata27188">
    <rdf:RDF>
      <cc:Work
         rdf:about="">
        <dc:format>image/svg+xml</dc:format>
        <dc:type
           rdf:resource="http://purl.org/dc/dcmitype/StillImage" />
        <dc:title />
      </cc:Work>
    </rdf:RDF>
  </metadata>
  <g
     inkscape:label="Layer 1"
     inkscape:groupmode="layer"
     id="layer1"
     transform="translate(0,-642.36218)">
    <path
       sodipodi:nodetypes="sscccccccsscssscssssssssscssssssssssssssssssssssscccccs"
       inkscape:connector-curvature="0"
       id="path3790"
       d="m 145.6765,1045.5799 c 3.5932,-1.8661 7.7426,-6.1388 9.5755,-9.8602 l 1.513,-3.0715 0.1712,-79.32613 0.1713,-79.3261 3.9025,0 3.9024,0 0.1788,78.6719 0.1788,78.67183 1.7018,3.6282 c 2.3763,5.0663 5.246,8.0852 9.8927,10.4072 3.4649,1.7315 4.6845,1.9926 9.282,1.987 4.1715,-0.01 5.9861,-0.3307 8.5641,-1.537 6.262,-2.93 10.7269,-8.8628 12.0936,-16.0696 0.4353,-2.295 0.664,-48.46223 0.664,-134.00823 0,-123.9843 0.057,-130.4902 1.1449,-130.1708 0.6297,0.1849 10.7131,4.5324 22.4076,9.6611 23.9736,10.5137 26.2328,11.119 31.2091,8.3619 1.5125,-0.838 13.3629,-11.0918 26.3343,-22.7862 25.3501,-22.8547 26.3498,-23.9917 26.3498,-29.9706 0,-6.0595 -3.5417,-10.9658 -9.2955,-12.8769 -2.7478,-0.9127 -3.8392,-0.9642 -6.9122,-0.3263 -4.2127,0.8746 -2.2183,-0.7294 -26.6397,21.4254 -14.5738,13.2212 -18.437,16.4093 -19.3261,15.9485 -0.6112,-0.3167 -12.8875,-5.6919 -27.2807,-11.9448 l -26.1694,-11.3688 -35.5709,-0.1952 c -40.3683,-0.2214 -41.6245,-0.1098 -50.4553,4.4845 -19.087599,9.9304 -30.784799,35.9241 -35.459799,78.7986 -1.2666,11.6162 -1.2001,64.8916 0.087,69.3274 1.7003,5.862 7.5444,10.1623 13.8106,10.1623 3.0092,0 7.4596,-2.2977 9.688899,-5.0024 3.2519,-3.9451 3.4268,-5.5473 2.6526,-24.2976 -1.0829,-26.2238 0.3685,-51.0141 4.0476,-69.1354 1.3215,-6.5088 5.2472,-19.4353 6.4657,-21.2898 0.4247,-0.6464 0.6482,42.5737 0.6548,126.6394 0.01,115.21613 0.1121,127.96443 1.0598,131.15593 1.8851,6.3478 5.779,10.7749 12.0536,13.7039 3.9767,1.8564 13.3609,1.6014 17.3521,-0.4715 z m 32.7043,-323.04923 c 13.7229,-3.4883 24.7782,-14.1569 28.2013,-27.2148 2.7262,-10.3996 0.7203,-22.23 -5.3064,-31.2953 -7.2139,-10.8513 -18.5254,-16.7249 -32.0803,-16.6578 -27.9558,0.1381 -45.9332,29.7288 -33.5246,55.1813 2.8742,5.8954 10.995,13.9851 16.9583,16.8933 8.1229,3.9614 17.7753,5.1208 25.7517,3.0933 z m 151.6322,-20.7249 c -1.7037,-1.7297 -3.2822,-3.1449 -3.5078,-3.1449 -0.2256,0 -4.0254,3.8382 -8.444,8.5292 l -8.0338,8.5291 3.1855,3.2909 3.1856,3.2908 8.3561,-8.6751 8.3561,-8.675 z"
       style="fill:#ffffff;fill-opacity:1" />
  </g>
</svg>
